<?xml version="1.0" standalone="no"?>
<!DOCTYPE svg PUBLIC "-//W3C//DTD SVG 20010904//EN"
 "http://www.w3.org/TR/2001/REC-SVG-20010904/DTD/svg10.dtd">
<svg version="1.0" xmlns="http://www.w3.org/2000/svg"
 width="48.000000pt" height="48.000000pt" viewBox="0 0 48.000000 48.000000"
 preserveAspectRatio="xMidYMid meet">

<g transform="translate(0.000000,48.000000) scale(0.100000,-0.100000)"
fill="#000000" stroke="none">
<path d="M16 464 c-14 -13 -16 -48 -16 -228 0 -169 3 -216 14 -225 9 -8 81
-11 237 -9 l224 3 3 224 c2 156 -1 228 -9 237 -9 11 -56 14 -225 14 -180 0
-215 -2 -228 -16z m304 -99 c41 -21 60 -53 60 -103 0 -35 -6 -49 -29 -73 -25
-24 -37 -29 -80 -29 -50 0 -51 -1 -51 -30 0 -34 -22 -49 -45 -30 -11 10 -15
36 -15 111 l0 99 -30 0 c-34 0 -53 25 -39 52 8 15 24 18 105 18 65 0 104 -5
124 -15z"/>
<path d="M242 298 c-15 -15 -15 -51 0 -66 15 -15 51 -15 66 0 28 28 7 78 -33
78 -12 0 -26 -5 -33 -12z"/>
</g>
</svg>
