<svg width="288" height="60" viewBox="0 0 288 60" fill="none" xmlns="http://www.w3.org/2000/svg">
<rect width="60" height="60" rx="5" fill="#1D1D1F"/>
<line x1="23.5" y1="44.5" x2="23.5" y2="18.5" stroke="white" stroke-width="7" stroke-linecap="round"/>
<path d="M14 13C12.067 13 10.5 14.567 10.5 16.5C10.5 18.433 12.067 20 14 20V13ZM30.3178 20H33.8178V13H30.3178V20ZM14 20H30.3178V13H14V20Z" fill="white"/>
<path d="M14 13C12.067 13 10.5 14.567 10.5 16.5C10.5 18.433 12.067 20 14 20V13ZM30.3178 20H33.8178V13H30.3178V20ZM14 20H30.3178V13H14V20Z" fill="white"/>
<path d="M43.5 26.2795C43.5 31.6589 39.1041 36.059 33.6329 36.059C28.1617 36.059 23.7658 31.6589 23.7658 26.2795C23.7658 20.9001 28.1617 16.5 33.6329 16.5C39.1041 16.5 43.5 20.9001 43.5 26.2795Z" fill="#1D1D1F" stroke="white" stroke-width="7"/>
<line x1="23.5" y1="44.5" x2="23.5" y2="18.5" stroke="white" stroke-width="7" stroke-linecap="round"/>
<path d="M14 13C12.067 13 10.5 14.567 10.5 16.5C10.5 18.433 12.067 20 14 20V13ZM30.3178 20H33.8178V13H30.3178V20ZM14 20H30.3178V13H14V20Z" fill="white"/>
<path d="M14 13C12.067 13 10.5 14.567 10.5 16.5C10.5 18.433 12.067 20 14 20V13ZM30.3178 20H33.8178V13H30.3178V20ZM14 20H30.3178V13H14V20Z" fill="white"/>
<path d="M43.5 26.2795C43.5 31.6589 39.1041 36.059 33.6329 36.059C28.1617 36.059 23.7658 31.6589 23.7658 26.2795C23.7658 20.9001 28.1617 16.5 33.6329 16.5C39.1041 16.5 43.5 20.9001 43.5 26.2795Z" fill="#1D1D1F" stroke="white" stroke-width="7"/>
<path d="M80.634 17.216C79.626 17.216 78.66 17.084 77.736 16.82C76.812 16.544 76.068 16.19 75.504 15.758L76.494 13.562C77.034 13.946 77.67 14.264 78.402 14.516C79.146 14.756 79.896 14.876 80.652 14.876C81.228 14.876 81.69 14.822 82.038 14.714C82.398 14.594 82.662 14.432 82.83 14.228C82.998 14.024 83.082 13.79 83.082 13.526C83.082 13.19 82.95 12.926 82.686 12.734C82.422 12.53 82.074 12.368 81.642 12.248C81.21 12.116 80.73 11.996 80.202 11.888C79.686 11.768 79.164 11.624 78.636 11.456C78.12 11.288 77.646 11.072 77.214 10.808C76.782 10.544 76.428 10.196 76.152 9.764C75.888 9.332 75.756 8.78 75.756 8.108C75.756 7.388 75.948 6.734 76.332 6.146C76.728 5.546 77.316 5.072 78.096 4.724C78.888 4.364 79.878 4.184 81.066 4.184C81.858 4.184 82.638 4.28 83.406 4.472C84.174 4.652 84.852 4.928 85.44 5.3L84.54 7.514C83.952 7.178 83.364 6.932 82.776 6.776C82.188 6.608 81.612 6.524 81.048 6.524C80.484 6.524 80.022 6.59 79.662 6.722C79.302 6.854 79.044 7.028 78.888 7.244C78.732 7.448 78.654 7.688 78.654 7.964C78.654 8.288 78.786 8.552 79.05 8.756C79.314 8.948 79.662 9.104 80.094 9.224C80.526 9.344 81 9.464 81.516 9.584C82.044 9.704 82.566 9.842 83.082 9.998C83.61 10.154 84.09 10.364 84.522 10.628C84.954 10.892 85.302 11.24 85.566 11.672C85.842 12.104 85.98 12.65 85.98 13.31C85.98 14.018 85.782 14.666 85.386 15.254C84.99 15.842 84.396 16.316 83.604 16.676C82.824 17.036 81.834 17.216 80.634 17.216ZM90.6545 9.476H96.7205V11.744H90.6545V9.476ZM90.8705 14.66H97.7285V17H87.9725V4.4H97.4945V6.74H90.8705V14.66ZM106.169 17.216C105.173 17.216 104.249 17.054 103.397 16.73C102.557 16.406 101.825 15.95 101.201 15.362C100.589 14.774 100.109 14.084 99.7607 13.292C99.4247 12.5 99.2567 11.636 99.2567 10.7C99.2567 9.764 99.4247 8.9 99.7607 8.108C100.109 7.316 100.595 6.626 101.219 6.038C101.843 5.45 102.575 4.994 103.415 4.67C104.255 4.346 105.167 4.184 106.151 4.184C107.147 4.184 108.059 4.346 108.887 4.67C109.727 4.994 110.453 5.45 111.065 6.038C111.689 6.626 112.175 7.316 112.523 8.108C112.871 8.888 113.045 9.752 113.045 10.7C113.045 11.636 112.871 12.506 112.523 13.31C112.175 14.102 111.689 14.792 111.065 15.38C110.453 15.956 109.727 16.406 108.887 16.73C108.059 17.054 107.153 17.216 106.169 17.216ZM106.151 14.732C106.715 14.732 107.231 14.636 107.699 14.444C108.179 14.252 108.599 13.976 108.959 13.616C109.319 13.256 109.595 12.83 109.787 12.338C109.991 11.846 110.093 11.3 110.093 10.7C110.093 10.1 109.991 9.554 109.787 9.062C109.595 8.57 109.319 8.144 108.959 7.784C108.611 7.424 108.197 7.148 107.717 6.956C107.237 6.764 106.715 6.668 106.151 6.668C105.587 6.668 105.065 6.764 104.585 6.956C104.117 7.148 103.703 7.424 103.343 7.784C102.983 8.144 102.701 8.57 102.497 9.062C102.305 9.554 102.209 10.1 102.209 10.7C102.209 11.288 102.305 11.834 102.497 12.338C102.701 12.83 102.977 13.256 103.325 13.616C103.685 13.976 104.105 14.252 104.585 14.444C105.065 14.636 105.587 14.732 106.151 14.732Z" fill="#1D1D1F"/>
<path d="M115.434 17V4.4H120.618C121.734 4.4 122.688 4.58 123.48 4.94C124.284 5.3 124.902 5.816 125.334 6.488C125.766 7.16 125.982 7.958 125.982 8.882C125.982 9.806 125.766 10.604 125.334 11.276C124.902 11.948 124.284 12.464 123.48 12.824C122.688 13.184 121.734 13.364 120.618 13.364H116.73L117.774 12.266V17H115.434ZM117.774 12.518L116.73 11.384H120.51C121.542 11.384 122.316 11.168 122.832 10.736C123.36 10.292 123.624 9.674 123.624 8.882C123.624 8.078 123.36 7.46 122.832 7.028C122.316 6.596 121.542 6.38 120.51 6.38H116.73L117.774 5.228V12.518ZM128.319 17V4.4H133.503C134.619 4.4 135.573 4.58 136.365 4.94C137.169 5.3 137.787 5.816 138.219 6.488C138.651 7.16 138.867 7.958 138.867 8.882C138.867 9.806 138.651 10.604 138.219 11.276C137.787 11.936 137.169 12.446 136.365 12.806C135.573 13.154 134.619 13.328 133.503 13.328H129.615L130.659 12.266V17H128.319ZM136.563 17L133.377 12.428H135.879L139.083 17H136.563ZM130.659 12.518L129.615 11.402H133.395C134.427 11.402 135.201 11.18 135.717 10.736C136.245 10.292 136.509 9.674 136.509 8.882C136.509 8.078 136.245 7.46 135.717 7.028C135.201 6.596 134.427 6.38 133.395 6.38H129.615L130.659 5.228V12.518ZM147.389 17.18C146.405 17.18 145.499 17.018 144.671 16.694C143.843 16.37 143.123 15.92 142.511 15.344C141.899 14.756 141.425 14.072 141.089 13.292C140.753 12.5 140.585 11.636 140.585 10.7C140.585 9.764 140.753 8.906 141.089 8.126C141.425 7.334 141.899 6.65 142.511 6.074C143.123 5.486 143.843 5.03 144.671 4.706C145.499 4.382 146.399 4.22 147.371 4.22C148.355 4.22 149.255 4.382 150.071 4.706C150.899 5.03 151.619 5.486 152.231 6.074C152.843 6.65 153.317 7.334 153.653 8.126C153.989 8.906 154.157 9.764 154.157 10.7C154.157 11.636 153.989 12.5 153.653 13.292C153.317 14.084 152.843 14.768 152.231 15.344C151.619 15.92 150.899 16.37 150.071 16.694C149.255 17.018 148.361 17.18 147.389 17.18ZM147.371 15.128C148.007 15.128 148.595 15.02 149.135 14.804C149.675 14.588 150.143 14.282 150.539 13.886C150.935 13.478 151.241 13.01 151.457 12.482C151.685 11.942 151.799 11.348 151.799 10.7C151.799 10.052 151.685 9.464 151.457 8.936C151.241 8.396 150.935 7.928 150.539 7.532C150.143 7.124 149.675 6.812 149.135 6.596C148.595 6.38 148.007 6.272 147.371 6.272C146.735 6.272 146.147 6.38 145.607 6.596C145.079 6.812 144.611 7.124 144.203 7.532C143.807 7.928 143.495 8.396 143.267 8.936C143.051 9.464 142.943 10.052 142.943 10.7C142.943 11.336 143.051 11.924 143.267 12.464C143.495 13.004 143.807 13.478 144.203 13.886C144.599 14.282 145.067 14.588 145.607 14.804C146.147 15.02 146.735 15.128 147.371 15.128ZM156.637 17V4.4H158.563L164.071 13.598H163.063L168.481 4.4H170.407L170.425 17H168.211L168.193 7.874H168.661L164.053 15.56H163.009L158.329 7.874H158.869V17H156.637ZM173.829 17V4.4H179.013C180.129 4.4 181.083 4.58 181.875 4.94C182.679 5.3 183.297 5.816 183.729 6.488C184.161 7.16 184.377 7.958 184.377 8.882C184.377 9.806 184.161 10.604 183.729 11.276C183.297 11.948 182.679 12.464 181.875 12.824C181.083 13.184 180.129 13.364 179.013 13.364H175.125L176.169 12.266V17H173.829ZM176.169 12.518L175.125 11.384H178.905C179.937 11.384 180.711 11.168 181.227 10.736C181.755 10.292 182.019 9.674 182.019 8.882C182.019 8.078 181.755 7.46 181.227 7.028C180.711 6.596 179.937 6.38 178.905 6.38H175.125L176.169 5.228V12.518ZM188.9 17V6.38H184.724V4.4H195.416V6.38H191.24V17H188.9Z" fill="#7B4ECA"/>
<path d="M83.358 36L79.592 31.114L80.432 30.61L84.548 36H83.358ZM76.652 36V26.2H77.66V36H76.652ZM77.352 31.506V30.596H80.418V31.506H77.352ZM80.516 31.212L79.564 31.044L83.218 26.2H84.338L80.516 31.212ZM88.8443 36.07C88.1349 36.07 87.4956 35.9113 86.9263 35.594C86.3663 35.2673 85.9229 34.824 85.5963 34.264C85.2696 33.6947 85.1063 33.046 85.1063 32.318C85.1063 31.5807 85.2696 30.932 85.5963 30.372C85.9229 29.812 86.3663 29.3733 86.9263 29.056C87.4863 28.7387 88.1256 28.58 88.8443 28.58C89.5723 28.58 90.2163 28.7387 90.7763 29.056C91.3456 29.3733 91.7889 29.812 92.1063 30.372C92.4329 30.932 92.5963 31.5807 92.5963 32.318C92.5963 33.046 92.4329 33.6947 92.1063 34.264C91.7889 34.824 91.3456 35.2673 90.7763 35.594C90.2069 35.9113 89.5629 36.07 88.8443 36.07ZM88.8443 35.188C89.3763 35.188 89.8476 35.0713 90.2583 34.838C90.6689 34.5953 90.9909 34.2593 91.2243 33.83C91.4669 33.3913 91.5883 32.8873 91.5883 32.318C91.5883 31.7393 91.4669 31.2353 91.2243 30.806C90.9909 30.3767 90.6689 30.0453 90.2583 29.812C89.8476 29.5693 89.3809 29.448 88.8583 29.448C88.3356 29.448 87.8689 29.5693 87.4583 29.812C87.0476 30.0453 86.7209 30.3767 86.4783 30.806C86.2356 31.2353 86.1143 31.7393 86.1143 32.318C86.1143 32.8873 86.2356 33.3913 86.4783 33.83C86.7209 34.2593 87.0476 34.5953 87.4583 34.838C87.8689 35.0713 88.3309 35.188 88.8443 35.188ZM94.7206 36V28.65H95.7286L99.0606 34.292H98.6406L102.029 28.65H102.953V36H102.043V29.784L102.225 29.868L99.0606 35.104H98.6126L95.4206 29.812L95.6306 29.77V36H94.7206ZM105.781 36V28.65H112.389V36H111.395V29.252L111.647 29.518H106.523L106.775 29.252V36H105.781ZM113.871 35.986L113.941 35.132C114.006 35.1413 114.067 35.1553 114.123 35.174C114.188 35.1833 114.244 35.188 114.291 35.188C114.589 35.188 114.827 35.076 115.005 34.852C115.191 34.628 115.331 34.3293 115.425 33.956C115.518 33.5827 115.583 33.1627 115.621 32.696C115.658 32.22 115.691 31.744 115.719 31.268L115.845 28.65H121.235V36H120.241V29.224L120.493 29.518H116.489L116.727 29.21L116.615 31.338C116.587 31.9727 116.535 32.5793 116.461 33.158C116.395 33.7367 116.288 34.2453 116.139 34.684C115.999 35.1227 115.803 35.468 115.551 35.72C115.299 35.9627 114.977 36.084 114.585 36.084C114.473 36.084 114.356 36.0747 114.235 36.056C114.123 36.0373 114.001 36.014 113.871 35.986ZM127.21 36.07C126.445 36.07 125.773 35.9113 125.194 35.594C124.616 35.2673 124.163 34.824 123.836 34.264C123.51 33.6947 123.346 33.046 123.346 32.318C123.346 31.59 123.5 30.946 123.808 30.386C124.126 29.826 124.555 29.3873 125.096 29.07C125.647 28.7433 126.263 28.58 126.944 28.58C127.635 28.58 128.246 28.7387 128.778 29.056C129.32 29.364 129.744 29.8027 130.052 30.372C130.36 30.932 130.514 31.5807 130.514 32.318C130.514 32.3647 130.51 32.416 130.5 32.472C130.5 32.5187 130.5 32.57 130.5 32.626H124.102V31.884H129.968L129.576 32.178C129.576 31.646 129.46 31.1747 129.226 30.764C129.002 30.344 128.694 30.0173 128.302 29.784C127.91 29.5507 127.458 29.434 126.944 29.434C126.44 29.434 125.988 29.5507 125.586 29.784C125.185 30.0173 124.872 30.344 124.648 30.764C124.424 31.184 124.312 31.6647 124.312 32.206V32.36C124.312 32.92 124.434 33.4147 124.676 33.844C124.928 34.264 125.274 34.5953 125.712 34.838C126.16 35.0713 126.669 35.188 127.238 35.188C127.686 35.188 128.102 35.1087 128.484 34.95C128.876 34.7913 129.212 34.5487 129.492 34.222L130.052 34.866C129.726 35.258 129.315 35.5567 128.82 35.762C128.335 35.9673 127.798 36.07 127.21 36.07ZM138.105 36L135.081 32.36L135.907 31.87L139.281 36H138.105ZM132.715 36V28.65H133.709V36H132.715ZM133.401 32.724V31.87H135.767V32.724H133.401ZM135.991 32.43L135.067 32.29L137.993 28.65H139.071L135.991 32.43ZM143.67 36.07C142.942 36.07 142.288 35.9113 141.71 35.594C141.14 35.2673 140.692 34.824 140.366 34.264C140.039 33.6947 139.876 33.046 139.876 32.318C139.876 31.5807 140.039 30.932 140.366 30.372C140.692 29.812 141.14 29.3733 141.71 29.056C142.288 28.7387 142.942 28.58 143.67 28.58C144.295 28.58 144.86 28.7013 145.364 28.944C145.868 29.1867 146.264 29.5507 146.554 30.036L145.812 30.54C145.56 30.1667 145.247 29.8913 144.874 29.714C144.5 29.5367 144.094 29.448 143.656 29.448C143.133 29.448 142.662 29.5693 142.242 29.812C141.822 30.0453 141.49 30.3767 141.248 30.806C141.005 31.2353 140.884 31.7393 140.884 32.318C140.884 32.8967 141.005 33.4007 141.248 33.83C141.49 34.2593 141.822 34.5953 142.242 34.838C142.662 35.0713 143.133 35.188 143.656 35.188C144.094 35.188 144.5 35.0993 144.874 34.922C145.247 34.7447 145.56 34.474 145.812 34.11L146.554 34.614C146.264 35.09 145.868 35.454 145.364 35.706C144.86 35.9487 144.295 36.07 143.67 36.07ZM148.478 36V28.65H149.472V31.898H154.106V28.65H155.1V36H154.106V32.752H149.472V36H148.478ZM160.95 36.07C160.24 36.07 159.601 35.9113 159.032 35.594C158.472 35.2673 158.028 34.824 157.702 34.264C157.375 33.6947 157.212 33.046 157.212 32.318C157.212 31.5807 157.375 30.932 157.702 30.372C158.028 29.812 158.472 29.3733 159.032 29.056C159.592 28.7387 160.231 28.58 160.95 28.58C161.678 28.58 162.322 28.7387 162.882 29.056C163.451 29.3733 163.894 29.812 164.212 30.372C164.538 30.932 164.702 31.5807 164.702 32.318C164.702 33.046 164.538 33.6947 164.212 34.264C163.894 34.824 163.451 35.2673 162.882 35.594C162.312 35.9113 161.668 36.07 160.95 36.07ZM160.95 35.188C161.482 35.188 161.953 35.0713 162.364 34.838C162.774 34.5953 163.096 34.2593 163.33 33.83C163.572 33.3913 163.694 32.8873 163.694 32.318C163.694 31.7393 163.572 31.2353 163.33 30.806C163.096 30.3767 162.774 30.0453 162.364 29.812C161.953 29.5693 161.486 29.448 160.964 29.448C160.441 29.448 159.974 29.5693 159.564 29.812C159.153 30.0453 158.826 30.3767 158.584 30.806C158.341 31.2353 158.22 31.7393 158.22 32.318C158.22 32.8873 158.341 33.3913 158.584 33.83C158.826 34.2593 159.153 34.5953 159.564 34.838C159.974 35.0713 160.436 35.188 160.95 35.188ZM169.976 36.07C169.211 36.07 168.539 35.9113 167.96 35.594C167.381 35.2673 166.929 34.824 166.602 34.264C166.275 33.6947 166.112 33.046 166.112 32.318C166.112 31.59 166.266 30.946 166.574 30.386C166.891 29.826 167.321 29.3873 167.862 29.07C168.413 28.7433 169.029 28.58 169.71 28.58C170.401 28.58 171.012 28.7387 171.544 29.056C172.085 29.364 172.51 29.8027 172.818 30.372C173.126 30.932 173.28 31.5807 173.28 32.318C173.28 32.3647 173.275 32.416 173.266 32.472C173.266 32.5187 173.266 32.57 173.266 32.626H166.868V31.884H172.734L172.342 32.178C172.342 31.646 172.225 31.1747 171.992 30.764C171.768 30.344 171.46 30.0173 171.068 29.784C170.676 29.5507 170.223 29.434 169.71 29.434C169.206 29.434 168.753 29.5507 168.352 29.784C167.951 30.0173 167.638 30.344 167.414 30.764C167.19 31.184 167.078 31.6647 167.078 32.206V32.36C167.078 32.92 167.199 33.4147 167.442 33.844C167.694 34.264 168.039 34.5953 168.478 34.838C168.926 35.0713 169.435 35.188 170.004 35.188C170.452 35.188 170.867 35.1087 171.25 34.95C171.642 34.7913 171.978 34.5487 172.258 34.222L172.818 34.866C172.491 35.258 172.081 35.5567 171.586 35.762C171.101 35.9673 170.564 36.07 169.976 36.07ZM179.144 36V28.65H185.752V36H184.758V29.252L185.01 29.518H179.886L180.138 29.252V36H179.144ZM192.372 36.07C191.737 36.07 191.163 35.9253 190.65 35.636C190.137 35.3373 189.726 34.9127 189.418 34.362C189.119 33.802 188.97 33.1207 188.97 32.318C188.97 31.5153 189.119 30.8387 189.418 30.288C189.717 29.728 190.123 29.3033 190.636 29.014C191.149 28.7247 191.728 28.58 192.372 28.58C193.072 28.58 193.697 28.7387 194.248 29.056C194.808 29.364 195.247 29.8027 195.564 30.372C195.881 30.932 196.04 31.5807 196.04 32.318C196.04 33.0647 195.881 33.718 195.564 34.278C195.247 34.838 194.808 35.2767 194.248 35.594C193.697 35.9113 193.072 36.07 192.372 36.07ZM188.578 38.716V28.65H189.53V30.862L189.432 32.332L189.572 33.816V38.716H188.578ZM192.302 35.188C192.825 35.188 193.291 35.0713 193.702 34.838C194.113 34.5953 194.439 34.2593 194.682 33.83C194.925 33.3913 195.046 32.8873 195.046 32.318C195.046 31.7487 194.925 31.2493 194.682 30.82C194.439 30.3907 194.113 30.0547 193.702 29.812C193.291 29.5693 192.825 29.448 192.302 29.448C191.779 29.448 191.308 29.5693 190.888 29.812C190.477 30.0547 190.151 30.3907 189.908 30.82C189.675 31.2493 189.558 31.7487 189.558 32.318C189.558 32.8873 189.675 33.3913 189.908 33.83C190.151 34.2593 190.477 34.5953 190.888 34.838C191.308 35.0713 191.779 35.188 192.302 35.188ZM201.2 36.07C200.49 36.07 199.851 35.9113 199.282 35.594C198.722 35.2673 198.278 34.824 197.952 34.264C197.625 33.6947 197.462 33.046 197.462 32.318C197.462 31.5807 197.625 30.932 197.952 30.372C198.278 29.812 198.722 29.3733 199.282 29.056C199.842 28.7387 200.481 28.58 201.2 28.58C201.928 28.58 202.572 28.7387 203.132 29.056C203.701 29.3733 204.144 29.812 204.462 30.372C204.788 30.932 204.952 31.5807 204.952 32.318C204.952 33.046 204.788 33.6947 204.462 34.264C204.144 34.824 203.701 35.2673 203.132 35.594C202.562 35.9113 201.918 36.07 201.2 36.07ZM201.2 35.188C201.732 35.188 202.203 35.0713 202.614 34.838C203.024 34.5953 203.346 34.2593 203.58 33.83C203.822 33.3913 203.944 32.8873 203.944 32.318C203.944 31.7393 203.822 31.2353 203.58 30.806C203.346 30.3767 203.024 30.0453 202.614 29.812C202.203 29.5693 201.736 29.448 201.214 29.448C200.691 29.448 200.224 29.5693 199.814 29.812C199.403 30.0453 199.076 30.3767 198.834 30.806C198.591 31.2353 198.47 31.7393 198.47 32.318C198.47 32.8873 198.591 33.3913 198.834 33.83C199.076 34.2593 199.403 34.5953 199.814 34.838C200.224 35.0713 200.686 35.188 201.2 35.188ZM212.075 35.524V29.518H208.533L208.449 31.156C208.43 31.6507 208.398 32.136 208.351 32.612C208.314 33.088 208.244 33.5267 208.141 33.928C208.048 34.32 207.912 34.642 207.735 34.894C207.558 35.1367 207.329 35.2767 207.049 35.314L206.055 35.132C206.344 35.1413 206.582 35.0387 206.769 34.824C206.956 34.6 207.1 34.2967 207.203 33.914C207.306 33.5313 207.38 33.0973 207.427 32.612C207.474 32.1173 207.511 31.6133 207.539 31.1L207.637 28.65H213.069V35.524H212.075ZM205.747 37.778V35.132H214.217V37.778H213.279V36H206.685V37.778H205.747ZM216.154 36V28.65H219.402C220.233 28.65 220.886 28.8087 221.362 29.126C221.848 29.4433 222.09 29.91 222.09 30.526C222.09 31.1233 221.862 31.5853 221.404 31.912C220.947 32.2293 220.345 32.388 219.598 32.388L219.794 32.094C220.672 32.094 221.316 32.2573 221.726 32.584C222.137 32.9107 222.342 33.382 222.342 33.998C222.342 34.6327 222.109 35.1273 221.642 35.482C221.185 35.8273 220.471 36 219.5 36H216.154ZM217.12 35.216H219.458C220.084 35.216 220.555 35.118 220.872 34.922C221.199 34.7167 221.362 34.39 221.362 33.942C221.362 33.494 221.218 33.1673 220.928 32.962C220.639 32.7567 220.182 32.654 219.556 32.654H217.12V35.216ZM217.12 31.912H219.332C219.902 31.912 220.336 31.8047 220.634 31.59C220.942 31.3753 221.096 31.0627 221.096 30.652C221.096 30.2413 220.942 29.9333 220.634 29.728C220.336 29.5227 219.902 29.42 219.332 29.42H217.12V31.912ZM224.672 36V28.65H225.666V34.488L230.58 28.65H231.462V36H230.468V30.148L225.568 36H224.672ZM243.032 36L240.512 32.36L241.338 31.87L244.222 36H243.032ZM238.86 32.724V31.87H241.184V32.724H238.86ZM241.436 32.43L240.484 32.29L242.934 28.65H244.012L241.436 32.43ZM234.324 36H233.134L236.018 31.87L236.83 32.36L234.324 36ZM239.168 36H238.174V28.65H239.168V36ZM238.482 32.724H236.172V31.87H238.482V32.724ZM235.934 32.43L233.344 28.65H234.422L236.858 32.29L235.934 32.43ZM248.767 36.07C248.002 36.07 247.33 35.9113 246.751 35.594C246.172 35.2673 245.72 34.824 245.393 34.264C245.066 33.6947 244.903 33.046 244.903 32.318C244.903 31.59 245.057 30.946 245.365 30.386C245.682 29.826 246.112 29.3873 246.653 29.07C247.204 28.7433 247.82 28.58 248.501 28.58C249.192 28.58 249.803 28.7387 250.335 29.056C250.876 29.364 251.301 29.8027 251.609 30.372C251.917 30.932 252.071 31.5807 252.071 32.318C252.071 32.3647 252.066 32.416 252.057 32.472C252.057 32.5187 252.057 32.57 252.057 32.626H245.659V31.884H251.525L251.133 32.178C251.133 31.646 251.016 31.1747 250.783 30.764C250.559 30.344 250.251 30.0173 249.859 29.784C249.467 29.5507 249.014 29.434 248.501 29.434C247.997 29.434 247.544 29.5507 247.143 29.784C246.742 30.0173 246.429 30.344 246.205 30.764C245.981 31.184 245.869 31.6647 245.869 32.206V32.36C245.869 32.92 245.99 33.4147 246.233 33.844C246.485 34.264 246.83 34.5953 247.269 34.838C247.717 35.0713 248.226 35.188 248.795 35.188C249.243 35.188 249.658 35.1087 250.041 34.95C250.433 34.7913 250.769 34.5487 251.049 34.222L251.609 34.866C251.282 35.258 250.872 35.5567 250.377 35.762C249.892 35.9673 249.355 36.07 248.767 36.07ZM254.271 36V28.65H255.265V31.898H259.899V28.65H260.893V36H259.899V32.752H255.265V36H254.271ZM263.719 36V28.65H264.713V34.488L269.627 28.65H270.509V36H269.515V30.148L264.615 36H263.719ZM276.507 36.07C275.742 36.07 275.07 35.9113 274.491 35.594C273.913 35.2673 273.46 34.824 273.133 34.264C272.807 33.6947 272.643 33.046 272.643 32.318C272.643 31.59 272.797 30.946 273.105 30.386C273.423 29.826 273.852 29.3873 274.393 29.07C274.944 28.7433 275.56 28.58 276.241 28.58C276.932 28.58 277.543 28.7387 278.075 29.056C278.617 29.364 279.041 29.8027 279.349 30.372C279.657 30.932 279.811 31.5807 279.811 32.318C279.811 32.3647 279.807 32.416 279.797 32.472C279.797 32.5187 279.797 32.57 279.797 32.626H273.399V31.884H279.265L278.873 32.178C278.873 31.646 278.757 31.1747 278.523 30.764C278.299 30.344 277.991 30.0173 277.599 29.784C277.207 29.5507 276.755 29.434 276.241 29.434C275.737 29.434 275.285 29.5507 274.883 29.784C274.482 30.0173 274.169 30.344 273.945 30.764C273.721 31.184 273.609 31.6647 273.609 32.206V32.36C273.609 32.92 273.731 33.4147 273.973 33.844C274.225 34.264 274.571 34.5953 275.009 34.838C275.457 35.0713 275.966 35.188 276.535 35.188C276.983 35.188 277.399 35.1087 277.781 34.95C278.173 34.7913 278.509 34.5487 278.789 34.222L279.349 34.866C279.023 35.258 278.612 35.5567 278.117 35.762C277.632 35.9673 277.095 36.07 276.507 36.07ZM76.414 53V45.65H77.408V51.488L82.322 45.65H83.204V53H82.21V47.148L77.31 53H76.414ZM93.5107 53.07C92.8761 53.07 92.3021 52.9253 91.7887 52.636C91.2754 52.3373 90.8647 51.9127 90.5567 51.362C90.2581 50.802 90.1087 50.1207 90.1087 49.318C90.1087 48.5153 90.2581 47.8387 90.5567 47.288C90.8554 46.728 91.2614 46.3033 91.7747 46.014C92.2881 45.7247 92.8667 45.58 93.5107 45.58C94.2107 45.58 94.8361 45.7387 95.3867 46.056C95.9467 46.364 96.3854 46.8027 96.7027 47.372C97.0201 47.932 97.1787 48.5807 97.1787 49.318C97.1787 50.0647 97.0201 50.718 96.7027 51.278C96.3854 51.838 95.9467 52.2767 95.3867 52.594C94.8361 52.9113 94.2107 53.07 93.5107 53.07ZM89.7167 55.716V45.65H90.6687V47.862L90.5707 49.332L90.7107 50.816V55.716H89.7167ZM93.4407 52.188C93.9634 52.188 94.4301 52.0713 94.8407 51.838C95.2514 51.5953 95.5781 51.2593 95.8207 50.83C96.0634 50.3913 96.1847 49.8873 96.1847 49.318C96.1847 48.7487 96.0634 48.2493 95.8207 47.82C95.5781 47.3907 95.2514 47.0547 94.8407 46.812C94.4301 46.5693 93.9634 46.448 93.4407 46.448C92.9181 46.448 92.4467 46.5693 92.0267 46.812C91.6161 47.0547 91.2894 47.3907 91.0467 47.82C90.8134 48.2493 90.6967 48.7487 90.6967 49.318C90.6967 49.8873 90.8134 50.3913 91.0467 50.83C91.2894 51.2593 91.6161 51.5953 92.0267 51.838C92.4467 52.0713 92.9181 52.188 93.4407 52.188ZM103.837 53V51.376L103.795 51.11V48.394C103.795 47.7687 103.618 47.288 103.263 46.952C102.918 46.616 102.4 46.448 101.709 46.448C101.233 46.448 100.781 46.5273 100.351 46.686C99.922 46.8447 99.558 47.0547 99.2594 47.316L98.8114 46.574C99.1847 46.2567 99.6327 46.014 100.155 45.846C100.678 45.6687 101.229 45.58 101.807 45.58C102.759 45.58 103.492 45.818 104.005 46.294C104.528 46.7607 104.789 47.4747 104.789 48.436V53H103.837ZM101.303 53.07C100.753 53.07 100.272 52.9813 99.8614 52.804C99.46 52.6173 99.152 52.3653 98.9374 52.048C98.7227 51.7213 98.6154 51.348 98.6154 50.928C98.6154 50.5453 98.704 50.2 98.8814 49.892C99.068 49.5747 99.3667 49.3227 99.7774 49.136C100.197 48.94 100.757 48.842 101.457 48.842H103.991V49.584H101.485C100.776 49.584 100.281 49.71 100.001 49.962C99.7307 50.214 99.5954 50.5267 99.5954 50.9C99.5954 51.32 99.7587 51.656 100.085 51.908C100.412 52.16 100.869 52.286 101.457 52.286C102.017 52.286 102.498 52.16 102.899 51.908C103.31 51.6467 103.609 51.2733 103.795 50.788L104.019 51.474C103.833 51.9593 103.506 52.3467 103.039 52.636C102.582 52.9253 102.003 53.07 101.303 53.07ZM109.259 53.084C109.866 53.084 110.412 52.9907 110.897 52.804C111.392 52.6173 111.784 52.3607 112.073 52.034C112.362 51.698 112.507 51.3107 112.507 50.872C112.507 50.312 112.269 49.8687 111.793 49.542C111.326 49.2153 110.673 49.052 109.833 49.052L109.791 49.318C110.267 49.318 110.692 49.2433 111.065 49.094C111.438 48.9447 111.737 48.7347 111.961 48.464C112.185 48.1933 112.297 47.876 112.297 47.512C112.297 47.1013 112.157 46.7513 111.877 46.462C111.597 46.1633 111.219 45.9347 110.743 45.776C110.276 45.6173 109.749 45.5473 109.161 45.566C108.732 45.566 108.302 45.6267 107.873 45.748C107.453 45.86 107.028 46.028 106.599 46.252L106.879 47.022C107.262 46.826 107.649 46.6813 108.041 46.588C108.433 46.4853 108.811 46.4293 109.175 46.42C109.576 46.42 109.936 46.4667 110.253 46.56C110.57 46.6533 110.818 46.7933 110.995 46.98C111.182 47.1667 111.275 47.3907 111.275 47.652C111.275 47.8947 111.196 48.1047 111.037 48.282C110.888 48.4593 110.673 48.5947 110.393 48.688C110.113 48.7813 109.791 48.828 109.427 48.828H108.237V49.556H109.497C110.113 49.556 110.598 49.668 110.953 49.892C111.308 50.1067 111.485 50.41 111.485 50.802C111.485 51.0727 111.392 51.3153 111.205 51.53C111.018 51.7447 110.757 51.9127 110.421 52.034C110.085 52.1553 109.688 52.2207 109.231 52.23C108.774 52.23 108.312 52.1647 107.845 52.034C107.378 51.894 106.968 51.6933 106.613 51.432L106.291 52.174C106.692 52.482 107.154 52.7107 107.677 52.86C108.2 53.0093 108.727 53.084 109.259 53.084ZM118.558 53.07C117.923 53.07 117.349 52.9253 116.836 52.636C116.322 52.3373 115.912 51.9127 115.604 51.362C115.305 50.802 115.156 50.1207 115.156 49.318C115.156 48.5153 115.305 47.8387 115.604 47.288C115.902 46.728 116.308 46.3033 116.822 46.014C117.335 45.7247 117.914 45.58 118.558 45.58C119.258 45.58 119.883 45.7387 120.434 46.056C120.994 46.364 121.432 46.8027 121.75 47.372C122.067 47.932 122.226 48.5807 122.226 49.318C122.226 50.0647 122.067 50.718 121.75 51.278C121.432 51.838 120.994 52.2767 120.434 52.594C119.883 52.9113 119.258 53.07 118.558 53.07ZM114.764 55.716V45.65H115.716V47.862L115.618 49.332L115.758 50.816V55.716H114.764ZM118.488 52.188C119.01 52.188 119.477 52.0713 119.888 51.838C120.298 51.5953 120.625 51.2593 120.868 50.83C121.11 50.3913 121.232 49.8873 121.232 49.318C121.232 48.7487 121.11 48.2493 120.868 47.82C120.625 47.3907 120.298 47.0547 119.888 46.812C119.477 46.5693 119.01 46.448 118.488 46.448C117.965 46.448 117.494 46.5693 117.074 46.812C116.663 47.0547 116.336 47.3907 116.094 47.82C115.86 48.2493 115.744 48.7487 115.744 49.318C115.744 49.8873 115.86 50.3913 116.094 50.83C116.336 51.2593 116.663 51.5953 117.074 51.838C117.494 52.0713 117.965 52.188 118.488 52.188ZM128.884 53V51.376L128.842 51.11V48.394C128.842 47.7687 128.665 47.288 128.31 46.952C127.965 46.616 127.447 46.448 126.756 46.448C126.28 46.448 125.828 46.5273 125.398 46.686C124.969 46.8447 124.605 47.0547 124.306 47.316L123.858 46.574C124.232 46.2567 124.68 46.014 125.202 45.846C125.725 45.6687 126.276 45.58 126.854 45.58C127.806 45.58 128.539 45.818 129.052 46.294C129.575 46.7607 129.836 47.4747 129.836 48.436V53H128.884ZM126.35 53.07C125.8 53.07 125.319 52.9813 124.908 52.804C124.507 52.6173 124.199 52.3653 123.984 52.048C123.77 51.7213 123.662 51.348 123.662 50.928C123.662 50.5453 123.751 50.2 123.928 49.892C124.115 49.5747 124.414 49.3227 124.824 49.136C125.244 48.94 125.804 48.842 126.504 48.842H129.038V49.584H126.532C125.823 49.584 125.328 49.71 125.048 49.962C124.778 50.214 124.642 50.5267 124.642 50.9C124.642 51.32 124.806 51.656 125.132 51.908C125.459 52.16 125.916 52.286 126.504 52.286C127.064 52.286 127.545 52.16 127.946 51.908C128.357 51.6467 128.656 51.2733 128.842 50.788L129.066 51.474C128.88 51.9593 128.553 52.3467 128.086 52.636C127.629 52.9253 127.05 53.07 126.35 53.07ZM135.786 53.084C135.189 53.084 134.657 52.986 134.19 52.79C133.733 52.594 133.341 52.2953 133.014 51.894C132.688 51.4927 132.44 50.998 132.272 50.41C132.104 49.8127 132.02 49.122 132.02 48.338C132.02 47.638 132.086 47.0267 132.216 46.504C132.347 45.972 132.529 45.5147 132.762 45.132C132.996 44.7493 133.266 44.4273 133.574 44.166C133.892 43.8953 134.232 43.6807 134.596 43.522C134.97 43.354 135.352 43.228 135.744 43.144L139.048 42.374L139.216 43.298L136.108 43.998C135.912 44.0447 135.674 44.11 135.394 44.194C135.124 44.278 134.844 44.404 134.554 44.572C134.274 44.74 134.013 44.9733 133.77 45.272C133.528 45.5707 133.332 45.958 133.182 46.434C133.042 46.9007 132.972 47.484 132.972 48.184C132.972 48.3333 132.977 48.4547 132.986 48.548C132.996 48.632 133.005 48.7253 133.014 48.828C133.033 48.9213 133.047 49.0613 133.056 49.248L132.622 48.884C132.725 48.3147 132.935 47.82 133.252 47.4C133.57 46.9707 133.966 46.6393 134.442 46.406C134.928 46.1633 135.464 46.042 136.052 46.042C136.734 46.042 137.34 46.1913 137.872 46.49C138.404 46.7793 138.82 47.1853 139.118 47.708C139.426 48.2307 139.58 48.8373 139.58 49.528C139.58 50.2093 139.422 50.8207 139.104 51.362C138.796 51.9033 138.358 52.328 137.788 52.636C137.219 52.9347 136.552 53.084 135.786 53.084ZM135.898 52.258C136.421 52.258 136.883 52.1413 137.284 51.908C137.686 51.6653 137.998 51.3387 138.222 50.928C138.456 50.5173 138.572 50.0553 138.572 49.542C138.572 49.038 138.456 48.59 138.222 48.198C137.998 47.806 137.686 47.498 137.284 47.274C136.883 47.0407 136.416 46.924 135.884 46.924C135.362 46.924 134.9 47.036 134.498 47.26C134.097 47.4747 133.78 47.778 133.546 48.17C133.322 48.562 133.21 49.0147 133.21 49.528C133.21 50.0413 133.322 50.5033 133.546 50.914C133.78 51.3247 134.097 51.6513 134.498 51.894C134.909 52.1367 135.376 52.258 135.898 52.258ZM144.735 53.07C144.026 53.07 143.386 52.9113 142.817 52.594C142.257 52.2673 141.814 51.824 141.487 51.264C141.16 50.6947 140.997 50.046 140.997 49.318C140.997 48.5807 141.16 47.932 141.487 47.372C141.814 46.812 142.257 46.3733 142.817 46.056C143.377 45.7387 144.016 45.58 144.735 45.58C145.463 45.58 146.107 45.7387 146.667 46.056C147.236 46.3733 147.68 46.812 147.997 47.372C148.324 47.932 148.487 48.5807 148.487 49.318C148.487 50.046 148.324 50.6947 147.997 51.264C147.68 51.824 147.236 52.2673 146.667 52.594C146.098 52.9113 145.454 53.07 144.735 53.07ZM144.735 52.188C145.267 52.188 145.738 52.0713 146.149 51.838C146.56 51.5953 146.882 51.2593 147.115 50.83C147.358 50.3913 147.479 49.8873 147.479 49.318C147.479 48.7393 147.358 48.2353 147.115 47.806C146.882 47.3767 146.56 47.0453 146.149 46.812C145.738 46.5693 145.272 46.448 144.749 46.448C144.226 46.448 143.76 46.5693 143.349 46.812C142.938 47.0453 142.612 47.3767 142.369 47.806C142.126 48.2353 142.005 48.7393 142.005 49.318C142.005 49.8873 142.126 50.3913 142.369 50.83C142.612 51.2593 142.938 51.5953 143.349 51.838C143.76 52.0713 144.222 52.188 144.735 52.188ZM151.738 53V46.252L151.99 46.518H148.952V45.65H155.518V46.518H152.48L152.732 46.252V53H151.738ZM162.345 53L159.321 49.36L160.147 48.87L163.521 53H162.345ZM156.955 53V45.65H157.949V53H156.955ZM157.641 49.724V48.87H160.007V49.724H157.641ZM160.231 49.43L159.307 49.29L162.233 45.65H163.311L160.231 49.43ZM169.517 53V51.376L169.475 51.11V48.394C169.475 47.7687 169.298 47.288 168.943 46.952C168.598 46.616 168.08 46.448 167.389 46.448C166.913 46.448 166.46 46.5273 166.031 46.686C165.602 46.8447 165.238 47.0547 164.939 47.316L164.491 46.574C164.864 46.2567 165.312 46.014 165.835 45.846C166.358 45.6687 166.908 45.58 167.487 45.58C168.439 45.58 169.172 45.818 169.685 46.294C170.208 46.7607 170.469 47.4747 170.469 48.436V53H169.517ZM166.983 53.07C166.432 53.07 165.952 52.9813 165.541 52.804C165.14 52.6173 164.832 52.3653 164.617 52.048C164.402 51.7213 164.295 51.348 164.295 50.928C164.295 50.5453 164.384 50.2 164.561 49.892C164.748 49.5747 165.046 49.3227 165.457 49.136C165.877 48.94 166.437 48.842 167.137 48.842H169.671V49.584H167.165C166.456 49.584 165.961 49.71 165.681 49.962C165.41 50.214 165.275 50.5267 165.275 50.9C165.275 51.32 165.438 51.656 165.765 51.908C166.092 52.16 166.549 52.286 167.137 52.286C167.697 52.286 168.178 52.16 168.579 51.908C168.99 51.6467 169.288 51.2733 169.475 50.788L169.699 51.474C169.512 51.9593 169.186 52.3467 168.719 52.636C168.262 52.9253 167.683 53.07 166.983 53.07ZM179.859 53.07C179.131 53.07 178.478 52.9113 177.899 52.594C177.33 52.2673 176.882 51.824 176.555 51.264C176.229 50.6947 176.065 50.046 176.065 49.318C176.065 48.5807 176.229 47.932 176.555 47.372C176.882 46.812 177.33 46.3733 177.899 46.056C178.478 45.7387 179.131 45.58 179.859 45.58C180.485 45.58 181.049 45.7013 181.553 45.944C182.057 46.1867 182.454 46.5507 182.743 47.036L182.001 47.54C181.749 47.1667 181.437 46.8913 181.063 46.714C180.69 46.5367 180.284 46.448 179.845 46.448C179.323 46.448 178.851 46.5693 178.431 46.812C178.011 47.0453 177.68 47.3767 177.437 47.806C177.195 48.2353 177.073 48.7393 177.073 49.318C177.073 49.8967 177.195 50.4007 177.437 50.83C177.68 51.2593 178.011 51.5953 178.431 51.838C178.851 52.0713 179.323 52.188 179.845 52.188C180.284 52.188 180.69 52.0993 181.063 51.922C181.437 51.7447 181.749 51.474 182.001 51.11L182.743 51.614C182.454 52.09 182.057 52.454 181.553 52.706C181.049 52.9487 180.485 53.07 179.859 53.07ZM189.232 53V51.376L189.19 51.11V48.394C189.19 47.7687 189.013 47.288 188.658 46.952C188.313 46.616 187.795 46.448 187.104 46.448C186.628 46.448 186.175 46.5273 185.746 46.686C185.317 46.8447 184.953 47.0547 184.654 47.316L184.206 46.574C184.579 46.2567 185.027 46.014 185.55 45.846C186.073 45.6687 186.623 45.58 187.202 45.58C188.154 45.58 188.887 45.818 189.4 46.294C189.923 46.7607 190.184 47.4747 190.184 48.436V53H189.232ZM186.698 53.07C186.147 53.07 185.667 52.9813 185.256 52.804C184.855 52.6173 184.547 52.3653 184.332 52.048C184.117 51.7213 184.01 51.348 184.01 50.928C184.01 50.5453 184.099 50.2 184.276 49.892C184.463 49.5747 184.761 49.3227 185.172 49.136C185.592 48.94 186.152 48.842 186.852 48.842H189.386V49.584H186.88C186.171 49.584 185.676 49.71 185.396 49.962C185.125 50.214 184.99 50.5267 184.99 50.9C184.99 51.32 185.153 51.656 185.48 51.908C185.807 52.16 186.264 52.286 186.852 52.286C187.412 52.286 187.893 52.16 188.294 51.908C188.705 51.6467 189.003 51.2733 189.19 50.788L189.414 51.474C189.227 51.9593 188.901 52.3467 188.434 52.636C187.977 52.9253 187.398 53.07 186.698 53.07ZM192.83 53V45.65H193.824V51.488L198.738 45.65H199.62V53H198.626V47.148L193.726 53H192.83ZM196.162 44.586C195.546 44.586 195.047 44.432 194.664 44.124C194.291 43.8067 194.095 43.354 194.076 42.766H194.79C194.799 43.1393 194.93 43.4333 195.182 43.648C195.434 43.8627 195.761 43.97 196.162 43.97C196.563 43.97 196.89 43.8627 197.142 43.648C197.403 43.4333 197.539 43.1393 197.548 42.766H198.262C198.253 43.354 198.057 43.8067 197.674 44.124C197.291 44.432 196.787 44.586 196.162 44.586ZM203.869 53V46.252L204.121 46.518H201.083V45.65H207.649V46.518H204.611L204.863 46.252V53H203.869ZM211.768 53.07C211.059 53.07 210.419 52.9113 209.85 52.594C209.29 52.2673 208.847 51.824 208.52 51.264C208.193 50.6947 208.03 50.046 208.03 49.318C208.03 48.5807 208.193 47.932 208.52 47.372C208.847 46.812 209.29 46.3733 209.85 46.056C210.41 45.7387 211.049 45.58 211.768 45.58C212.496 45.58 213.14 45.7387 213.7 46.056C214.269 46.3733 214.713 46.812 215.03 47.372C215.357 47.932 215.52 48.5807 215.52 49.318C215.52 50.046 215.357 50.6947 215.03 51.264C214.713 51.824 214.269 52.2673 213.7 52.594C213.131 52.9113 212.487 53.07 211.768 53.07ZM211.768 52.188C212.3 52.188 212.771 52.0713 213.182 51.838C213.593 51.5953 213.915 51.2593 214.148 50.83C214.391 50.3913 214.512 49.8873 214.512 49.318C214.512 48.7393 214.391 48.2353 214.148 47.806C213.915 47.3767 213.593 47.0453 213.182 46.812C212.771 46.5693 212.305 46.448 211.782 46.448C211.259 46.448 210.793 46.5693 210.382 46.812C209.971 47.0453 209.645 47.3767 209.402 47.806C209.159 48.2353 209.038 48.7393 209.038 49.318C209.038 49.8873 209.159 50.3913 209.402 50.83C209.645 51.2593 209.971 51.5953 210.382 51.838C210.793 52.0713 211.255 52.188 211.768 52.188ZM217.644 53V45.65H220.892C221.723 45.65 222.376 45.8087 222.852 46.126C223.338 46.4433 223.58 46.91 223.58 47.526C223.58 48.1233 223.352 48.5853 222.894 48.912C222.437 49.2293 221.835 49.388 221.088 49.388L221.284 49.094C222.162 49.094 222.806 49.2573 223.216 49.584C223.627 49.9107 223.832 50.382 223.832 50.998C223.832 51.6327 223.599 52.1273 223.132 52.482C222.675 52.8273 221.961 53 220.99 53H217.644ZM218.61 52.216H220.948C221.574 52.216 222.045 52.118 222.362 51.922C222.689 51.7167 222.852 51.39 222.852 50.942C222.852 50.494 222.708 50.1673 222.418 49.962C222.129 49.7567 221.672 49.654 221.046 49.654H218.61V52.216ZM218.61 48.912H220.822C221.392 48.912 221.826 48.8047 222.124 48.59C222.432 48.3753 222.586 48.0627 222.586 47.652C222.586 47.2413 222.432 46.9333 222.124 46.728C221.826 46.5227 221.392 46.42 220.822 46.42H218.61V48.912Z" fill="#1D1D1F"/>
</svg>
