<svg width="191" height="60" viewBox="0 0 191 60" fill="none" xmlns="http://www.w3.org/2000/svg">
<rect width="60" height="60" rx="5" fill="#1D1D1F"/>
<line x1="23.5" y1="44.5" x2="23.5" y2="18.5" stroke="white" stroke-width="7" stroke-linecap="round"/>
<path d="M14 13C12.067 13 10.5 14.567 10.5 16.5C10.5 18.433 12.067 20 14 20V13ZM30.3178 20H33.8178V13H30.3178V20ZM14 20H30.3178V13H14V20Z" fill="white"/>
<path d="M14 13C12.067 13 10.5 14.567 10.5 16.5C10.5 18.433 12.067 20 14 20V13ZM30.3178 20H33.8178V13H30.3178V20ZM14 20H30.3178V13H14V20Z" fill="white"/>
<path d="M43.5 26.2795C43.5 31.6589 39.1041 36.059 33.6329 36.059C28.1617 36.059 23.7658 31.6589 23.7658 26.2795C23.7658 20.9001 28.1617 16.5 33.6329 16.5C39.1041 16.5 43.5 20.9001 43.5 26.2795Z" fill="#1D1D1F" stroke="white" stroke-width="7"/>
<line x1="23.5" y1="44.5" x2="23.5" y2="18.5" stroke="white" stroke-width="7" stroke-linecap="round"/>
<path d="M14 13C12.067 13 10.5 14.567 10.5 16.5C10.5 18.433 12.067 20 14 20V13ZM30.3178 20H33.8178V13H30.3178V20ZM14 20H30.3178V13H14V20Z" fill="white"/>
<path d="M14 13C12.067 13 10.5 14.567 10.5 16.5C10.5 18.433 12.067 20 14 20V13ZM30.3178 20H33.8178V13H30.3178V20ZM14 20H30.3178V13H14V20Z" fill="white"/>
<path d="M43.5 26.2795C43.5 31.6589 39.1041 36.059 33.6329 36.059C28.1617 36.059 23.7658 31.6589 23.7658 26.2795C23.7658 20.9001 28.1617 16.5 33.6329 16.5C39.1041 16.5 43.5 20.9001 43.5 26.2795Z" fill="#1D1D1F" stroke="white" stroke-width="7"/>
<path d="M75.634 37.216C74.626 37.216 73.66 37.084 72.736 36.82C71.812 36.544 71.068 36.19 70.504 35.758L71.494 33.562C72.034 33.946 72.67 34.264 73.402 34.516C74.146 34.756 74.896 34.876 75.652 34.876C76.228 34.876 76.69 34.822 77.038 34.714C77.398 34.594 77.662 34.432 77.83 34.228C77.998 34.024 78.082 33.79 78.082 33.526C78.082 33.19 77.95 32.926 77.686 32.734C77.422 32.53 77.074 32.368 76.642 32.248C76.21 32.116 75.73 31.996 75.202 31.888C74.686 31.768 74.164 31.624 73.636 31.456C73.12 31.288 72.646 31.072 72.214 30.808C71.782 30.544 71.428 30.196 71.152 29.764C70.888 29.332 70.756 28.78 70.756 28.108C70.756 27.388 70.948 26.734 71.332 26.146C71.728 25.546 72.316 25.072 73.096 24.724C73.888 24.364 74.878 24.184 76.066 24.184C76.858 24.184 77.638 24.28 78.406 24.472C79.174 24.652 79.852 24.928 80.44 25.3L79.54 27.514C78.952 27.178 78.364 26.932 77.776 26.776C77.188 26.608 76.612 26.524 76.048 26.524C75.484 26.524 75.022 26.59 74.662 26.722C74.302 26.854 74.044 27.028 73.888 27.244C73.732 27.448 73.654 27.688 73.654 27.964C73.654 28.288 73.786 28.552 74.05 28.756C74.314 28.948 74.662 29.104 75.094 29.224C75.526 29.344 76 29.464 76.516 29.584C77.044 29.704 77.566 29.842 78.082 29.998C78.61 30.154 79.09 30.364 79.522 30.628C79.954 30.892 80.302 31.24 80.566 31.672C80.842 32.104 80.98 32.65 80.98 33.31C80.98 34.018 80.782 34.666 80.386 35.254C79.99 35.842 79.396 36.316 78.604 36.676C77.824 37.036 76.834 37.216 75.634 37.216ZM85.6545 29.476H91.7205V31.744H85.6545V29.476ZM85.8705 34.66H92.7285V37H82.9725V24.4H92.4945V26.74H85.8705V34.66ZM101.169 37.216C100.173 37.216 99.2487 37.054 98.3967 36.73C97.5567 36.406 96.8247 35.95 96.2007 35.362C95.5887 34.774 95.1087 34.084 94.7607 33.292C94.4247 32.5 94.2567 31.636 94.2567 30.7C94.2567 29.764 94.4247 28.9 94.7607 28.108C95.1087 27.316 95.5947 26.626 96.2187 26.038C96.8427 25.45 97.5747 24.994 98.4147 24.67C99.2547 24.346 100.167 24.184 101.151 24.184C102.147 24.184 103.059 24.346 103.887 24.67C104.727 24.994 105.453 25.45 106.065 26.038C106.689 26.626 107.175 27.316 107.523 28.108C107.871 28.888 108.045 29.752 108.045 30.7C108.045 31.636 107.871 32.506 107.523 33.31C107.175 34.102 106.689 34.792 106.065 35.38C105.453 35.956 104.727 36.406 103.887 36.73C103.059 37.054 102.153 37.216 101.169 37.216ZM101.151 34.732C101.715 34.732 102.231 34.636 102.699 34.444C103.179 34.252 103.599 33.976 103.959 33.616C104.319 33.256 104.595 32.83 104.787 32.338C104.991 31.846 105.093 31.3 105.093 30.7C105.093 30.1 104.991 29.554 104.787 29.062C104.595 28.57 104.319 28.144 103.959 27.784C103.611 27.424 103.197 27.148 102.717 26.956C102.237 26.764 101.715 26.668 101.151 26.668C100.587 26.668 100.065 26.764 99.5847 26.956C99.1167 27.148 98.7027 27.424 98.3427 27.784C97.9827 28.144 97.7007 28.57 97.4967 29.062C97.3047 29.554 97.2087 30.1 97.2087 30.7C97.2087 31.288 97.3047 31.834 97.4967 32.338C97.7007 32.83 97.9767 33.256 98.3247 33.616C98.6847 33.976 99.1047 34.252 99.5847 34.444C100.065 34.636 100.587 34.732 101.151 34.732Z" fill="#1D1D1F"/>
<path d="M110.434 37V24.4H115.618C116.734 24.4 117.688 24.58 118.48 24.94C119.284 25.3 119.902 25.816 120.334 26.488C120.766 27.16 120.982 27.958 120.982 28.882C120.982 29.806 120.766 30.604 120.334 31.276C119.902 31.948 119.284 32.464 118.48 32.824C117.688 33.184 116.734 33.364 115.618 33.364H111.73L112.774 32.266V37H110.434ZM112.774 32.518L111.73 31.384H115.51C116.542 31.384 117.316 31.168 117.832 30.736C118.36 30.292 118.624 29.674 118.624 28.882C118.624 28.078 118.36 27.46 117.832 27.028C117.316 26.596 116.542 26.38 115.51 26.38H111.73L112.774 25.228V32.518ZM123.319 37V24.4H128.503C129.619 24.4 130.573 24.58 131.365 24.94C132.169 25.3 132.787 25.816 133.219 26.488C133.651 27.16 133.867 27.958 133.867 28.882C133.867 29.806 133.651 30.604 133.219 31.276C132.787 31.936 132.169 32.446 131.365 32.806C130.573 33.154 129.619 33.328 128.503 33.328H124.615L125.659 32.266V37H123.319ZM131.563 37L128.377 32.428H130.879L134.083 37H131.563ZM125.659 32.518L124.615 31.402H128.395C129.427 31.402 130.201 31.18 130.717 30.736C131.245 30.292 131.509 29.674 131.509 28.882C131.509 28.078 131.245 27.46 130.717 27.028C130.201 26.596 129.427 26.38 128.395 26.38H124.615L125.659 25.228V32.518ZM142.389 37.18C141.405 37.18 140.499 37.018 139.671 36.694C138.843 36.37 138.123 35.92 137.511 35.344C136.899 34.756 136.425 34.072 136.089 33.292C135.753 32.5 135.585 31.636 135.585 30.7C135.585 29.764 135.753 28.906 136.089 28.126C136.425 27.334 136.899 26.65 137.511 26.074C138.123 25.486 138.843 25.03 139.671 24.706C140.499 24.382 141.399 24.22 142.371 24.22C143.355 24.22 144.255 24.382 145.071 24.706C145.899 25.03 146.619 25.486 147.231 26.074C147.843 26.65 148.317 27.334 148.653 28.126C148.989 28.906 149.157 29.764 149.157 30.7C149.157 31.636 148.989 32.5 148.653 33.292C148.317 34.084 147.843 34.768 147.231 35.344C146.619 35.92 145.899 36.37 145.071 36.694C144.255 37.018 143.361 37.18 142.389 37.18ZM142.371 35.128C143.007 35.128 143.595 35.02 144.135 34.804C144.675 34.588 145.143 34.282 145.539 33.886C145.935 33.478 146.241 33.01 146.457 32.482C146.685 31.942 146.799 31.348 146.799 30.7C146.799 30.052 146.685 29.464 146.457 28.936C146.241 28.396 145.935 27.928 145.539 27.532C145.143 27.124 144.675 26.812 144.135 26.596C143.595 26.38 143.007 26.272 142.371 26.272C141.735 26.272 141.147 26.38 140.607 26.596C140.079 26.812 139.611 27.124 139.203 27.532C138.807 27.928 138.495 28.396 138.267 28.936C138.051 29.464 137.943 30.052 137.943 30.7C137.943 31.336 138.051 31.924 138.267 32.464C138.495 33.004 138.807 33.478 139.203 33.886C139.599 34.282 140.067 34.588 140.607 34.804C141.147 35.02 141.735 35.128 142.371 35.128ZM151.637 37V24.4H153.563L159.071 33.598H158.063L163.481 24.4H165.407L165.425 37H163.211L163.193 27.874H163.661L159.053 35.56H158.009L153.329 27.874H153.869V37H151.637ZM168.829 37V24.4H174.013C175.129 24.4 176.083 24.58 176.875 24.94C177.679 25.3 178.297 25.816 178.729 26.488C179.161 27.16 179.377 27.958 179.377 28.882C179.377 29.806 179.161 30.604 178.729 31.276C178.297 31.948 177.679 32.464 176.875 32.824C176.083 33.184 175.129 33.364 174.013 33.364H170.125L171.169 32.266V37H168.829ZM171.169 32.518L170.125 31.384H173.905C174.937 31.384 175.711 31.168 176.227 30.736C176.755 30.292 177.019 29.674 177.019 28.882C177.019 28.078 176.755 27.46 176.227 27.028C175.711 26.596 174.937 26.38 173.905 26.38H170.125L171.169 25.228V32.518ZM183.9 37V26.38H179.724V24.4H190.416V26.38H186.24V37H183.9Z" fill="#7B4ECA"/>
</svg>
