<svg width="60" height="60" viewBox="0 0 60 60" fill="none" xmlns="http://www.w3.org/2000/svg">
<rect width="60" height="60" rx="5" fill="#1D1D1F"/>
<line x1="23.5" y1="44.5" x2="23.5" y2="18.5" stroke="white" stroke-width="7" stroke-linecap="round"/>
<path d="M14 13C12.067 13 10.5 14.567 10.5 16.5C10.5 18.433 12.067 20 14 20V13ZM30.3178 20H33.8178V13H30.3178V20ZM14 20H30.3178V13H14V20Z" fill="white"/>
<path d="M14 13C12.067 13 10.5 14.567 10.5 16.5C10.5 18.433 12.067 20 14 20V13ZM30.3178 20H33.8178V13H30.3178V20ZM14 20H30.3178V13H14V20Z" fill="white"/>
<path d="M43.5 26.2795C43.5 31.6589 39.1041 36.059 33.6329 36.059C28.1617 36.059 23.7658 31.6589 23.7658 26.2795C23.7658 20.9001 28.1617 16.5 33.6329 16.5C39.1041 16.5 43.5 20.9001 43.5 26.2795Z" fill="#1D1D1F" stroke="white" stroke-width="7"/>
<line x1="23.5" y1="44.5" x2="23.5" y2="18.5" stroke="white" stroke-width="7" stroke-linecap="round"/>
<path d="M14 13C12.067 13 10.5 14.567 10.5 16.5C10.5 18.433 12.067 20 14 20V13ZM30.3178 20H33.8178V13H30.3178V20ZM14 20H30.3178V13H14V20Z" fill="white"/>
<path d="M14 13C12.067 13 10.5 14.567 10.5 16.5C10.5 18.433 12.067 20 14 20V13ZM30.3178 20H33.8178V13H30.3178V20ZM14 20H30.3178V13H14V20Z" fill="white"/>
<path d="M43.5 26.2795C43.5 31.6589 39.1041 36.059 33.6329 36.059C28.1617 36.059 23.7658 31.6589 23.7658 26.2795C23.7658 20.9001 28.1617 16.5 33.6329 16.5C39.1041 16.5 43.5 20.9001 43.5 26.2795Z" fill="#1D1D1F" stroke="white" stroke-width="7"/>
</svg>
